<?xml version="1.0" standalone="no"?>
<!DOCTYPE svg PUBLIC "-//W3C//DTD SVG 20010904//EN"
 "http://www.w3.org/TR/2001/REC-SVG-20010904/DTD/svg10.dtd">
<svg version="1.0" xmlns="http://www.w3.org/2000/svg"
 width="2560.000000pt" height="2560.000000pt" viewBox="0 0 2560.000000 2560.000000"
 preserveAspectRatio="xMidYMid meet">
<metadata>
Created by potrace 1.11, written by Peter Selinger 2001-2013
</metadata>
<g transform="translate(0.000000,2560.000000) scale(0.100000,-0.100000)"
fill="#000000" stroke="none">
<path d="M13407 25564 c-1 -1 -41 -5 -89 -9 -49 -3 -96 -8 -105 -9 -16 -3
-120 -18 -133 -19 -10 -1 -217 -56 -272 -73 l-58 -17 -127 36 c-71 20 -139 38
-153 41 -14 2 -41 7 -60 10 -19 3 -48 8 -65 11 -86 15 -190 20 -380 19 -225
-1 -365 -19 -563 -70 -431 -112 -769 -324 -1013 -634 -11 -14 -48 -65 -84
-115 -35 -49 -78 -106 -95 -125 -90 -98 -164 -172 -211 -211 -29 -24 -65 -54
-79 -66 -30 -28 -25 -28 -139 -3 -169 36 -333 95 -500 180 -202 102 -335 143
-572 174 -95 12 -352 13 -425 1 -22 -3 -70 -10 -109 -16 -38 -5 -88 -14 -110
-20 -22 -6 -51 -13 -65 -15 -132 -22 -435 -141 -605 -238 -66 -37 -234 -144
-245 -156 -3 -3 -25 -21 -50 -40 -90 -69 -257 -227 -249 -235 3 -2 43 -1 90 4
82 8 293 6 346 -3 14 -3 47 -8 72 -12 70 -9 186 -40 281 -73 47 -16 121 -39
165 -50 74 -18 108 -24 280 -50 59 -9 472 -8 510 2 11 2 43 8 70 11 67 10 233
44 320 66 277 71 620 234 839 399 59 45 72 48 151 36 198 -29 534 -26 730 6
429 70 788 216 1095 443 123 91 152 117 289 258 165 171 305 273 501 365 137
65 154 69 198 54 63 -23 221 -100 291 -143 108 -66 179 -125 306 -253 96 -96
242 -226 320 -283 34 -25 136 -92 140 -92 2 0 29 -16 59 -35 30 -19 59 -35 63
-35 4 0 37 -15 73 -33 148 -76 397 -162 549 -192 13 -2 30 -6 39 -9 9 -3 31
-7 47 -10 17 -3 46 -8 65 -11 70 -12 86 -14 155 -21 39 -4 84 -8 100 -10 89
-10 387 -3 475 11 110 19 139 18 177 -6 21 -13 40 -26 43 -30 13 -17 216 -138
320 -190 211 -105 468 -195 643 -224 17 -3 46 -10 62 -15 27 -7 106 -17 287
-35 72 -7 272 -7 358 0 159 12 327 50 537 120 72 25 147 47 165 50 18 3 51 10
73 15 97 22 330 29 453 15 l56 -6 -19 22 c-138 158 -386 339 -633 464 -173 86
-482 187 -647 211 -22 3 -51 7 -65 9 -57 10 -201 19 -290 18 -313 -1 -563 -69
-857 -234 -18 -10 -33 -16 -33 -14 0 3 -10 -1 -22 -9 -47 -28 -236 -90 -371
-121 -75 -16 -114 -19 -119 -7 -1 4 -28 27 -58 52 -103 85 -251 240 -328 345
-29 39 -56 75 -62 82 -5 7 -10 15 -10 18 0 9 -144 176 -182 211 -202 187 -478
339 -776 428 -76 23 -285 63 -362 70 -36 4 -85 9 -108 12 -42 6 -290 12 -295
8z"/>
<path d="M18710 23928 c135 -160 250 -363 304 -535 14 -46 27 -93 30 -105 11
-58 75 -224 129 -333 76 -153 170 -298 302 -463 34 -43 260 -267 310 -308 33
-27 62 -51 65 -54 21 -22 227 -163 285 -196 11 -6 36 -20 55 -32 93 -56 277
-139 453 -204 22 -9 62 -58 56 -70 -5 -12 210 -355 243 -389 8 -8 23 -27 33
-43 50 -76 297 -328 416 -424 215 -173 571 -371 754 -419 11 -2 25 -6 30 -8 6
-1 13 -3 17 -4 4 -1 26 -8 48 -16 58 -21 195 -48 295 -60 121 -14 338 -86 473
-157 77 -41 208 -124 216 -137 3 -4 11 -43 20 -86 51 -265 52 -477 3 -685 -55
-232 -63 -540 -22 -787 67 -394 195 -723 411 -1048 51 -77 104 -153 119 -170
14 -16 49 -57 78 -89 111 -126 102 -105 103 -235 1 -108 8 -223 20 -331 9 -75
54 -290 76 -365 12 -38 22 -74 24 -80 1 -5 15 -49 32 -96 84 -240 211 -475
375 -694 79 -105 270 -294 377 -374 143 -106 162 -121 255 -215 95 -96 182
-212 254 -336 50 -87 50 -113 8 -241 -30 -92 -105 -268 -124 -290 -7 -8 -13
-19 -13 -23 0 -7 -63 -108 -81 -129 -199 -242 -267 -343 -362 -537 -95 -196
-172 -438 -202 -635 -28 -188 -39 -315 -39 -475 1 -102 11 -279 19 -303 2 -7
6 -36 10 -65 3 -30 10 -73 15 -95 5 -23 11 -53 13 -67 7 -37 17 -78 34 -138
12 -44 17 -51 29 -41 8 6 14 15 14 19 0 9 105 167 124 185 6 7 24 30 40 51 16
21 109 118 206 214 97 96 198 202 223 236 142 189 253 432 313 682 24 102 24
110 24 540 l-1 437 -35 135 c-38 149 -88 288 -135 382 -32 63 -32 69 -10 183
25 131 36 487 18 610 -4 28 -9 64 -11 80 -6 48 -35 196 -47 240 -6 22 -13 49
-15 59 -2 11 -18 63 -35 115 -73 218 -174 422 -291 585 -71 98 -89 118 -213
242 -114 113 -241 206 -367 270 -70 35 -199 112 -208 123 -3 4 -18 15 -35 25
-48 30 -168 131 -225 187 l-51 52 6 86 c3 47 8 97 10 111 3 14 7 41 10 60 16
98 47 218 85 326 94 271 112 367 114 599 1 164 -4 234 -24 340 -5 28 -12 66
-15 85 -29 175 -147 477 -260 664 -19 32 -35 62 -35 66 0 5 -3 10 -7 12 -5 2
-25 30 -47 62 -45 69 -34 55 -133 176 -100 123 -236 258 -342 340 -47 36 -85
72 -87 81 -8 58 -97 286 -156 399 -60 115 -153 271 -188 313 -5 7 -31 39 -57
72 -122 154 -320 349 -430 423 -21 14 -40 28 -43 32 -27 33 -265 166 -375 210
-33 13 -64 27 -70 31 -5 4 -57 20 -115 37 -93 26 -151 39 -255 57 -16 3 -104
8 -195 10 -91 3 -184 7 -207 10 -118 14 -143 18 -208 32 -80 17 -82 17 -150
36 -102 30 -97 25 -149 158 -26 67 -50 130 -52 138 -2 9 -12 50 -24 91 -22 84
-46 217 -53 300 -7 85 -56 260 -99 360 -60 137 -168 330 -189 338 -5 2 -9 8
-9 14 0 25 -203 256 -308 351 -172 156 -318 254 -547 370 -130 66 -174 84
-304 127 -132 43 -187 57 -301 75 -25 3 -53 9 -63 12 -12 3 5 -24 43 -69z"/>
<path d="M6807 23954 c-2 -2 -21 -6 -43 -9 -138 -22 -426 -115 -569 -185 -128
-62 -387 -220 -420 -256 -5 -6 -38 -33 -72 -60 -87 -68 -266 -252 -344 -354
-70 -92 -159 -227 -159 -243 0 -6 -6 -18 -14 -26 -17 -20 -87 -184 -114 -271
-26 -81 -43 -167 -57 -275 -14 -115 -27 -186 -56 -293 -31 -117 -104 -318
-123 -339 -34 -38 -353 -102 -541 -109 -266 -9 -335 -14 -385 -29 -8 -3 -33
-7 -54 -11 -56 -8 -157 -40 -260 -81 -574 -231 -1089 -811 -1271 -1432 -18
-61 -22 -66 -110 -136 -87 -70 -233 -213 -292 -285 -15 -19 -38 -46 -51 -60
-72 -77 -263 -398 -324 -545 -61 -146 -107 -284 -124 -370 -24 -120 -34 -183
-39 -237 -4 -34 -8 -69 -11 -76 -5 -17 -6 -239 0 -277 2 -16 7 -59 11 -95 4
-36 16 -99 27 -140 11 -41 21 -84 23 -95 3 -11 23 -67 45 -124 36 -91 71 -207
85 -282 13 -68 25 -140 31 -193 3 -33 8 -67 9 -75 2 -9 4 -27 5 -41 1 -23 6
-20 56 35 77 83 210 262 277 371 80 130 205 377 206 409 0 3 7 18 15 33 31 61
111 333 130 442 2 14 7 43 11 65 4 22 9 49 11 60 10 56 18 184 18 300 1 188
-14 328 -48 460 -27 108 -39 209 -39 340 0 86 10 233 17 243 2 4 7 30 10 57
15 118 29 148 82 183 126 84 284 161 412 202 109 34 135 40 239 55 83 12 98
14 121 19 13 3 31 7 40 10 9 3 32 8 51 11 131 22 465 166 632 272 67 43 216
149 229 163 3 3 25 21 50 40 102 78 301 286 410 429 14 18 30 38 35 44 36 40
151 227 217 355 l44 84 104 39 c424 160 824 451 1103 801 97 122 198 275 245
368 20 41 40 77 43 80 13 12 80 184 109 280 69 232 94 299 142 390 60 112 154
252 214 319 25 28 37 48 28 48 -8 0 -15 -2 -17 -3z"/>
<path d="M11047 23030 c-50 -15 -131 -62 -162 -94 -34 -34 -100 -126 -90 -126
3 0 1 -9 -5 -19 -5 -11 -13 -37 -16 -58 -4 -21 -7 -421 -8 -889 l-1 -850 -25
-36 c-13 -20 -28 -34 -32 -32 -4 3 -8 0 -8 -6 0 -6 -4 -9 -9 -5 -5 3 -12 2
-15 -3 -2 -4 -152 -7 -333 -7 -180 1 -338 -3 -350 -7 -16 -5 -23 -4 -23 5 0 8
-4 7 -10 -3 -5 -8 -10 -12 -10 -8 0 4 -15 2 -32 -4 -18 -5 -39 -10 -45 -11 -7
0 -13 -5 -13 -10 0 -6 -3 -8 -6 -4 -9 9 -83 -44 -121 -86 -32 -35 -89 -137
-77 -137 4 0 0 -7 -7 -17 -12 -13 -14 -696 -15 -4379 0 -2400 -3 -4367 -7
-4370 -4 -4 -7 0 -7 9 0 27 -57 74 -82 69 -5 -1 -8 3 -8 9 0 5 -5 7 -10 4 -6
-4 -25 -8 -42 -10 -33 -5 -78 -40 -78 -62 0 -7 -4 -13 -10 -13 -13 0 -13 -310
-1 -343 13 -33 71 -77 110 -82 17 -2 31 0 31 4 0 4 10 7 23 8 21 2 49 28 72
67 7 13 10 -2 11 -56 3 -141 46 -240 136 -314 34 -27 108 -65 118 -59 5 3 10
2 10 -3 0 -9 15 -13 73 -15 20 -1 37 -4 37 -8 0 -8 144 -4 160 6 8 5 11 4 7
-2 -8 -13 116 -11 125 2 5 6 8 6 8 -1 0 -14 70 -13 70 1 0 6 3 6 8 0 4 -6 21
-11 37 -11 17 0 33 5 37 11 5 6 8 6 8 -2 0 -14 62 -13 72 2 5 7 8 6 8 -1 0
-12 80 -12 100 1 8 5 11 4 6 -3 -7 -11 41 -11 60 1 6 3 14 3 18 -1 11 -11 126
-9 126 3 0 5 4 4 9 -4 8 -13 12 -13 27 0 10 8 15 9 11 3 -4 -7 6 -11 28 -11
20 0 32 4 28 10 -4 6 -1 7 8 1 19 -11 129 -12 153 -1 11 5 16 5 13 0 -8 -13
116 -11 125 2 5 6 8 6 8 -1 0 -14 70 -13 70 1 0 6 3 6 8 0 4 -6 21 -11 37 -11
17 0 33 5 37 11 5 7 8 6 8 -1 0 -14 70 -13 70 1 0 6 3 6 8 0 4 -6 21 -11 37
-11 17 0 33 5 37 11 5 7 8 6 8 -1 0 -14 70 -13 70 1 0 6 3 6 8 0 9 -14 65 -14
74 0 5 6 8 6 8 -2 0 -14 62 -13 72 2 5 7 8 6 8 -1 0 -12 80 -12 100 1 8 5 11
4 6 -3 -7 -11 41 -11 60 1 6 3 14 3 18 -1 11 -11 126 -9 126 3 0 5 4 4 9 -4 8
-13 12 -13 27 0 10 8 15 9 11 3 -4 -7 6 -11 28 -11 20 0 32 4 28 10 -4 6 -1 7
8 1 19 -11 129 -12 153 -1 11 5 16 5 13 0 -8 -13 116 -11 125 2 5 6 8 6 8 -1
0 -14 70 -13 70 1 0 6 3 6 8 0 4 -6 21 -11 37 -11 17 0 33 5 37 11 5 7 8 6 8
-1 0 -14 70 -13 70 1 0 6 3 6 8 0 4 -6 21 -11 37 -11 17 0 33 5 37 11 5 7 8 6
8 -1 0 -14 70 -13 70 1 0 6 3 6 8 0 4 -6 21 -11 37 -11 17 0 33 5 37 11 5 6 8
6 8 -2 0 -14 62 -13 72 2 5 7 8 6 8 -1 0 -12 80 -12 100 1 8 5 11 4 6 -3 -7
-11 41 -11 60 1 6 3 14 3 18 -1 11 -11 126 -9 126 3 0 5 4 4 9 -4 8 -13 12
-13 27 0 10 8 15 9 11 3 -4 -7 6 -11 28 -11 20 0 32 4 28 10 -4 6 -1 7 8 1 19
-11 129 -12 153 -1 11 5 16 5 13 0 -8 -13 116 -11 125 2 5 6 8 6 8 -1 0 -14
70 -13 70 1 0 6 3 6 8 0 4 -6 21 -11 37 -11 17 0 33 5 37 11 5 7 8 6 8 -1 0
-14 70 -13 70 1 0 6 3 6 8 0 4 -6 21 -11 37 -11 17 0 33 5 37 11 5 7 8 6 8 -1
0 -14 70 -13 70 1 0 6 3 6 8 0 4 -6 21 -11 37 -11 17 0 33 5 37 11 5 6 8 6 8
-2 0 -14 62 -13 72 2 5 7 8 6 8 -1 0 -12 80 -12 100 1 8 5 11 4 6 -3 -7 -11
41 -11 60 1 6 3 14 3 18 -1 11 -11 126 -9 126 3 0 5 4 4 9 -4 8 -13 12 -13 27
0 10 8 15 9 11 3 -4 -7 6 -11 28 -11 20 0 32 4 28 10 -4 6 -1 7 8 1 19 -11
129 -12 153 -1 11 5 16 5 13 0 -8 -13 116 -11 125 2 5 6 8 6 8 -1 0 -14 70
-13 70 1 0 6 3 6 8 0 4 -6 21 -11 37 -11 17 0 33 5 37 11 5 6 8 6 8 -2 0 -14
62 -13 72 2 5 6 8 5 8 -2 0 -7 5 -13 11 -13 5 0 7 5 3 12 -5 7 -3 8 7 2 20
-12 129 -12 129 1 0 5 4 4 8 -2 8 -13 41 -11 64 3 7 5 8 3 3 -5 -6 -10 -3 -11
11 -3 11 5 27 8 36 7 10 -2 20 1 24 6 3 5 13 9 22 9 39 0 143 74 192 136 19
24 62 122 65 149 1 11 3 54 5 95 1 59 4 70 11 50 5 -14 24 -35 42 -47 30 -21
43 -24 103 -22 24 1 66 34 84 68 12 24 22 341 10 341 -3 0 -11 13 -18 29 -12
28 -76 69 -97 62 -5 -2 -23 -5 -39 -7 -32 -4 -73 -37 -86 -69 -5 -11 -9 1942
-9 4341 0 3900 -2 4364 -16 4397 -8 20 -16 40 -16 44 -8 62 -141 194 -211 209
-5 1 -9 2 -10 4 -2 1 -10 3 -18 5 -8 2 -26 7 -40 10 -14 4 -153 8 -310 9 -320
2 -345 7 -371 69 -11 26 -14 209 -15 937 0 607 -4 913 -11 930 -15 35 -64 76
-87 72 -13 -3 -16 0 -11 9 6 9 4 10 -6 3 -8 -5 -21 -9 -29 -10 -46 -3 -87 -39
-101 -87 -5 -19 -9 -409 -8 -942 1 -882 1 -912 21 -970 18 -56 80 -155 100
-163 5 -2 22 -15 38 -29 17 -14 30 -21 30 -16 0 4 4 3 8 -2 31 -43 117 -53
437 -54 297 -1 299 -1 348 -53 22 -22 32 -93 24 -165 -2 -18 1 -33 6 -33 4 0
5 -5 2 -10 -10 -16 -14 -81 -5 -75 5 3 5 -8 0 -23 -4 -16 -4 -35 0 -43 5 -7 6
-17 3 -23 -9 -14 -9 -216 0 -216 5 0 5 -5 1 -11 -10 -16 -11 -69 -2 -96 4 -13
4 -23 0 -23 -8 0 -8 -93 1 -107 4 -6 4 -13 0 -16 -9 -9 -10 -107 -1 -107 4 0
4 -10 0 -22 -4 -13 -6 -38 -4 -55 4 -47 4 -64 0 -100 -2 -18 0 -33 5 -33 4 0
5 -5 2 -11 -11 -16 -12 -69 -2 -69 4 0 5 -5 2 -11 -10 -15 -12 -69 -3 -69 4 0
4 -8 1 -17 -6 -16 -8 -145 -3 -168 1 -5 1 -12 0 -15 -2 -7 -2 -202 0 -215 1
-5 1 -14 0 -20 -6 -27 -4 -75 2 -75 4 0 4 -10 0 -22 -4 -13 -6 -38 -4 -55 1
-18 2 -41 2 -50 0 -10 0 -31 1 -48 1 -35 1 -39 -4 -82 -2 -18 1 -33 6 -33 4 0
5 -5 2 -11 -11 -16 -12 -69 -2 -69 4 0 5 -5 2 -11 -10 -15 -12 -69 -3 -69 4 0
4 -8 1 -17 -6 -14 -8 -200 -3 -213 1 -3 1 -9 0 -15 -6 -24 -5 -72 2 -92 4 -13
4 -23 0 -23 -8 0 -7 -83 2 -105 3 -8 2 -15 -2 -15 -6 0 -7 -95 -2 -110 2 -3 1
-9 0 -15 -1 -5 -2 -29 -1 -52 3 -69 3 -76 -1 -110 -2 -18 0 -33 5 -33 4 0 5
-5 2 -11 -11 -16 -12 -69 -2 -69 4 0 5 -5 2 -11 -11 -16 -12 -69 -2 -69 4 0 5
-5 1 -12 -10 -16 -11 -158 -1 -158 5 0 5 -5 1 -11 -6 -10 -9 -208 -4 -234 1
-5 1 -14 0 -20 -6 -27 -4 -75 2 -75 4 0 4 -10 0 -22 -4 -13 -6 -38 -4 -55 1
-18 2 -41 2 -50 0 -10 0 -31 1 -48 1 -35 1 -39 -4 -82 -2 -18 1 -33 6 -33 4 0
5 -5 2 -11 -11 -16 -12 -69 -2 -69 4 0 5 -5 2 -11 -10 -15 -12 -69 -3 -69 4 0
4 -8 1 -17 -6 -14 -8 -200 -3 -213 1 -3 1 -9 0 -15 -6 -24 -5 -72 2 -92 4 -13
4 -23 0 -23 -8 0 -7 -83 2 -105 3 -8 2 -15 -2 -15 -6 0 -7 -95 -2 -110 2 -3 1
-9 0 -15 -1 -5 -2 -29 -1 -52 3 -69 3 -76 -1 -110 -2 -18 0 -33 5 -33 4 0 5
-5 2 -11 -11 -16 -12 -69 -2 -69 4 0 5 -5 2 -11 -11 -16 -12 -69 -2 -69 4 0 5
-5 2 -11 -11 -16 -12 -69 -2 -69 4 0 5 -5 2 -11 -11 -16 -12 -69 -2 -69 4 0 5
-5 2 -11 -11 -16 -12 -69 -2 -69 4 0 5 -5 2 -11 -11 -16 -12 -69 -2 -69 4 0 5
-5 1 -12 -9 -15 -11 -138 -2 -138 4 0 4 -10 -1 -22 -5 -13 -5 -33 0 -45 5 -13
5 -23 1 -23 -9 0 -8 -93 1 -107 4 -6 3 -13 0 -17 -9 -8 -7 -91 2 -106 3 -5 3
-10 -2 -10 -7 0 -9 -94 -3 -110 2 -3 1 -9 0 -15 -1 -5 -2 -29 -1 -52 3 -69 3
-76 -1 -110 -2 -18 0 -33 5 -33 4 0 5 -5 2 -11 -11 -16 -12 -69 -2 -69 4 0 5
-5 2 -11 -10 -15 -12 -69 -3 -69 4 0 4 -8 1 -17 -6 -16 -8 -145 -3 -168 1 -5
1 -12 0 -15 -2 -7 -2 -202 0 -215 1 -5 1 -14 0 -20 -6 -27 -4 -75 2 -75 4 0 4
-10 0 -22 -4 -13 -6 -38 -4 -55 1 -18 2 -41 2 -50 0 -10 0 -31 1 -48 1 -35 1
-39 -4 -82 -2 -18 1 -33 6 -33 4 0 5 -5 2 -11 -11 -16 -12 -69 -2 -69 4 0 5
-5 2 -11 -10 -15 -12 -69 -3 -69 4 0 4 -8 1 -17 -6 -14 -8 -200 -3 -213 1 -3
1 -9 0 -15 -6 -24 -5 -72 2 -92 4 -13 4 -23 0 -23 -8 0 -7 -83 2 -105 3 -8 2
-15 -2 -15 -6 0 -7 -95 -2 -110 2 -3 1 -9 0 -15 -5 -21 -2 -91 5 -107 4 -10 3
-18 -2 -18 -8 0 -9 -35 -3 -65 1 -5 1 -12 0 -15 -6 -16 -4 -70 3 -70 5 0 5 -5
2 -11 -11 -16 -12 -69 -2 -69 4 0 5 -5 1 -12 -4 -6 -8 -41 -8 -77 l-1 -65
-2885 -1 c-1587 0 -2890 1 -2895 2 -15 5 -12 8449 3 8485 13 32 48 69 56 61 3
-4 6 -1 6 5 0 10 67 12 548 14 176 0 252 9 281 32 7 5 20 11 27 12 24 4 102
72 133 117 15 23 34 60 41 82 7 22 15 45 19 50 3 6 7 35 8 65 4 112 2 953 -2
959 -2 4 0 13 5 21 5 8 4 22 -1 33 -7 12 -7 22 0 31 6 7 9 15 6 18 -3 3 -5
131 -4 284 0 153 0 294 -1 313 0 19 3 37 7 40 4 3 13 15 19 26 6 11 25 28 42
38 30 17 101 18 1559 18 840 0 1539 -3 1553 -6 14 -2 26 -9 28 -15 2 -5 9 -10
16 -10 6 0 20 -15 31 -32 18 -32 19 -66 20 -1008 1 -536 5 -984 10 -995 26
-57 100 -88 158 -64 37 15 74 53 79 83 7 40 1 1951 -6 1996 -4 25 -17 65 -29
90 -25 51 -128 160 -151 160 -9 0 -16 4 -16 9 0 8 -20 16 -75 30 -35 8 -3189
10 -3218 1z"/>
<path d="M13818 22539 c-15 -4 -29 -5 -32 -2 -7 7 -76 -19 -76 -29 0 -4 -7 -8
-17 -8 -9 0 -14 -3 -11 -6 4 -3 0 -20 -7 -38 -15 -35 -7 -94 16 -122 33 -40
64 -45 272 -46 l202 -1 1 127 c1 119 0 127 -18 123 -10 -3 -18 -1 -18 4 0 5
-10 5 -23 0 -14 -5 -30 -5 -40 0 -9 6 -17 6 -17 2 0 -9 -192 -11 -200 -2 -3 3
-17 2 -32 -2z"/>
<path d="M10085 20512 c-16 -8 -39 -26 -50 -40 -19 -26 -20 -45 -23 -428 l-3
-400 158 -2 c87 -2 167 -2 178 -2 18 1 53 1 150 1 101 -1 794 -1 810 0 18 0
83 0 145 0 60 -1 157 -1 175 0 18 0 55 0 150 0 101 -1 794 -1 810 0 18 0 83 0
145 0 60 -1 157 -1 175 0 18 0 55 0 150 0 101 -1 794 -1 810 0 18 0 83 0 145
0 60 -1 157 -1 175 0 18 0 55 0 150 0 101 -1 794 -1 810 0 18 0 54 0 150 0 17
0 82 0 145 1 l115 1 -1 398 c-2 395 -2 398 -24 429 -12 17 -34 36 -49 42 -19
8 -785 12 -2696 12 -2208 1 -2675 -1 -2700 -12z"/>
<path d="M10310 19525 c0 -7 -30 -10 -77 -10 -43 1 -82 0 -88 -2 -7 -2 -10
-362 -9 -1056 1 -578 0 -1060 -3 -1069 -2 -11 -14 -18 -27 -18 -48 0 -102 -80
-91 -135 2 -11 4 -25 4 -31 1 -16 32 -49 61 -65 21 -12 428 -14 2708 -14 1475
-1 2682 2 2682 5 0 4 11 12 24 18 97 44 64 209 -46 225 l-22 4 0 1069 -1 1069
-70 0 c-38 0 -73 4 -77 10 -5 7 -8 7 -8 0 0 -14 -143 -14 -152 0 -5 7 -8 7 -8
0 0 -14 -240 -14 -240 0 0 6 -3 6 -8 0 -4 -6 -29 -11 -57 -11 -27 0 -53 5 -57
11 -5 7 -8 7 -8 0 0 -6 -20 -11 -45 -11 -25 0 -45 5 -45 11 0 7 -3 7 -8 0 -4
-6 -29 -11 -57 -11 -27 0 -53 5 -57 11 -5 6 -8 6 -8 0 0 -6 -40 -10 -100 -10
-60 0 -100 4 -100 10 0 6 -3 6 -8 0 -4 -6 -38 -11 -77 -11 -38 0 -73 5 -77 11
-5 7 -8 7 -8 0 0 -14 -150 -14 -150 0 0 7 -3 7 -8 0 -4 -6 -38 -11 -77 -11
-38 0 -73 5 -77 11 -5 7 -8 7 -8 0 0 -14 -240 -14 -240 0 0 6 -3 6 -8 0 -4 -6
-29 -11 -57 -11 -27 0 -53 5 -57 11 -5 7 -8 7 -8 0 0 -6 -20 -11 -45 -11 -25
0 -45 5 -45 11 0 7 -3 7 -8 0 -4 -6 -29 -11 -57 -11 -27 0 -53 5 -57 11 -5 6
-8 6 -8 0 0 -6 -40 -10 -100 -10 -60 0 -100 4 -100 10 0 6 -3 6 -8 0 -4 -6
-38 -11 -77 -11 -38 0 -73 5 -77 11 -5 7 -8 7 -8 0 0 -14 -150 -14 -150 0 0 7
-3 7 -8 0 -4 -6 -38 -11 -77 -11 -38 0 -73 5 -77 11 -5 7 -8 7 -8 0 0 -14
-240 -14 -240 0 0 6 -3 6 -8 0 -4 -6 -29 -11 -57 -11 -27 0 -53 5 -57 11 -5 7
-8 7 -8 0 0 -6 -20 -11 -45 -11 -25 0 -45 5 -45 11 0 7 -3 7 -8 0 -4 -6 -29
-11 -57 -11 -27 0 -53 5 -57 11 -5 6 -8 6 -8 0 0 -6 -40 -10 -100 -10 -60 0
-100 4 -100 10 0 6 -3 6 -8 0 -4 -6 -38 -11 -77 -11 -38 0 -73 5 -77 11 -5 7
-8 7 -8 0 0 -14 -150 -14 -150 0 0 7 -3 7 -8 0 -4 -6 -38 -11 -77 -11 -38 0
-73 5 -77 11 -5 7 -8 7 -8 0 0 -14 -240 -14 -240 0 0 6 -3 6 -8 0 -4 -6 -29
-11 -57 -11 -27 0 -53 5 -57 11 -5 7 -8 7 -8 0 0 -6 -20 -11 -45 -11 -25 0
-45 5 -45 11 0 7 -3 7 -8 0 -4 -6 -29 -11 -57 -11 -27 0 -53 5 -57 11 -5 6 -8
6 -8 0 0 -6 -40 -10 -100 -10 -60 0 -100 4 -100 10 0 6 -3 6 -8 0 -4 -6 -38
-11 -77 -11 -38 0 -73 5 -77 11 -5 7 -8 7 -8 0z"/>
<path d="M10300 17045 c0 -6 -29 -10 -72 -10 -40 1 -77 0 -83 -2 -7 -2 -10
-350 -9 -1019 0 -869 -2 -1019 -14 -1031 -8 -8 -20 -12 -27 -9 -7 2 -26 -10
-43 -27 -65 -67 -43 -174 42 -207 15 -5 1061 -9 2692 -9 2424 0 2670 1 2698
16 34 18 59 48 63 77 2 11 5 21 7 24 2 2 0 19 -6 39 -12 44 -49 83 -86 89 -14
3 -29 9 -32 14 -3 4 -5 465 -4 1024 0 710 -3 1016 -10 1019 -6 2 -41 3 -78 2
-43 -1 -68 3 -68 9 0 8 -3 8 -8 1 -4 -6 -32 -10 -62 -10 -30 0 -58 4 -62 10
-5 7 -8 6 -8 -1 0 -12 -87 -13 -106 -1 -6 3 -14 3 -18 -1 -12 -11 -216 -9
-216 3 0 7 -3 7 -8 0 -9 -14 -152 -14 -152 0 0 7 -3 7 -8 0 -4 -6 -32 -10 -62
-10 -30 0 -58 4 -62 10 -5 7 -8 6 -8 -1 0 -12 -87 -13 -106 -1 -6 3 -14 3 -18
-1 -12 -11 -216 -9 -216 3 0 7 -3 7 -8 0 -4 -6 -32 -10 -62 -10 -30 0 -58 4
-62 10 -5 7 -8 6 -8 -1 0 -9 -139 -13 -175 -4 -5 1 -13 1 -17 0 -24 -8 -114
-4 -120 5 -5 7 -8 6 -8 -1 0 -12 -159 -12 -178 0 -6 3 -13 3 -16 -2 -6 -10
-126 -9 -142 1 -6 3 -14 3 -18 -1 -12 -11 -306 -9 -306 3 0 7 -3 6 -8 0 -4 -6
-32 -10 -62 -10 -30 0 -58 4 -62 10 -5 7 -8 6 -8 -1 0 -12 -87 -13 -106 -1 -6
3 -14 3 -18 -1 -12 -11 -210 -9 -218 3 -5 7 -8 7 -8 0 0 -12 -128 -14 -146 -2
-6 3 -14 3 -18 -1 -12 -11 -270 -9 -278 3 -5 7 -8 6 -8 -1 0 -9 -139 -13 -175
-4 -5 1 -13 1 -17 0 -24 -8 -114 -4 -120 5 -5 7 -8 6 -8 -1 0 -9 -139 -13
-175 -4 -5 1 -12 1 -15 0 -17 -8 -150 -4 -150 5 0 7 -3 7 -8 0 -4 -6 -32 -10
-62 -10 -30 0 -58 4 -62 10 -5 7 -8 6 -8 -1 0 -12 -87 -13 -106 -1 -6 3 -14 3
-18 -1 -12 -11 -216 -9 -216 3 0 7 -3 7 -8 0 -9 -14 -152 -14 -152 0 0 7 -3 7
-8 0 -4 -6 -32 -10 -62 -10 -30 0 -58 4 -62 10 -5 7 -8 6 -8 -1 0 -12 -87 -13
-106 -1 -6 3 -14 3 -18 -1 -12 -11 -210 -9 -218 3 -5 6 -8 7 -8 0z"/>
<path d="M1546 16864 c-121 -118 -303 -250 -456 -331 -89 -47 -207 -122 -253
-160 -54 -46 -211 -205 -248 -252 -19 -24 -38 -48 -44 -55 -68 -77 -203 -317
-267 -476 -75 -184 -138 -430 -153 -595 -2 -16 -7 -57 -10 -90 -9 -75 -10
-311 -1 -391 4 -32 9 -79 12 -104 3 -25 12 -78 21 -119 l16 -73 30 53 c126
225 262 387 437 517 151 113 309 260 395 367 22 28 42 52 45 55 3 3 17 21 30
40 13 19 27 37 30 40 17 14 125 188 173 280 157 296 263 640 293 945 3 33 8
71 10 85 5 31 6 311 1 317 -2 2 -30 -22 -61 -53z"/>
<path d="M10139 14595 c-1 -5 -2 -487 -3 -1069 l-1 -1060 -29 -7 c-68 -19
-111 -99 -86 -164 13 -34 54 -73 84 -80 12 -3 1227 -4 2700 -2 2133 2 2680 5
2684 15 2 6 9 12 16 12 21 0 46 56 46 103 0 36 -6 51 -32 79 -18 20 -40 34
-49 33 -44 -7 -43 -43 -44 1077 -1 585 -3 1065 -3 1068 -4 11 -5282 6 -5283
-5z"/>
<path d="M131 14145 c-35 -75 -98 -240 -105 -277 -3 -13 -10 -39 -15 -58 -7
-23 -11 -235 -11 -611 l0 -577 29 -93 c91 -294 236 -538 427 -719 229 -217
321 -322 429 -489 26 -40 49 -70 52 -68 10 11 59 216 69 292 3 22 7 51 10 65
29 169 26 583 -6 770 -5 30 -12 70 -15 88 -34 201 -132 482 -238 681 -44 84
-174 284 -209 323 -183 201 -307 435 -376 708 l-9 35 -32 -70z"/>
<path d="M24616 11273 c-104 -184 -199 -430 -252 -648 -14 -59 -55 -301 -61
-362 -10 -100 -10 -416 0 -513 10 -101 26 -192 44 -265 8 -33 16 -68 18 -77 6
-31 64 -203 81 -243 10 -22 18 -42 19 -45 0 -3 21 -45 46 -95 113 -224 173
-467 173 -702 0 -35 0 -63 2 -63 1 0 21 26 45 58 23 31 45 59 49 62 3 3 34 48
68 100 148 224 294 591 337 850 3 19 10 60 15 90 25 147 28 447 6 594 -17 110
-40 211 -73 311 -29 92 -118 281 -159 340 -66 96 -144 214 -144 219 0 3 -13
27 -28 53 -39 68 -89 182 -127 291 l-32 94 -27 -49z"/>
<path d="M931 11219 c-6 -13 -27 -69 -47 -124 -58 -159 -131 -299 -223 -430
-108 -153 -206 -380 -246 -570 -3 -11 -7 -31 -10 -45 -22 -104 -30 -212 -30
-410 1 -292 45 -524 159 -823 66 -175 217 -443 313 -557 11 -14 32 -38 46 -54
l24 -30 1 66 c1 132 28 326 63 448 7 25 13 47 14 50 6 28 27 77 86 200 57 122
131 317 144 379 2 9 10 48 19 86 66 294 70 660 11 985 -44 239 -129 491 -240
709 -68 132 -75 142 -84 120z"/>
<path d="M5310 8473 c-41 -19 -79 -35 -85 -36 -5 -1 -16 -8 -23 -15 -8 -7 -18
-10 -23 -7 -5 4 -9 2 -9 -4 0 -5 -16 -15 -35 -22 -19 -7 -35 -17 -35 -23 0 -5
-3 -6 -7 -3 -3 4 -15 0 -25 -10 -10 -9 -18 -13 -18 -8 0 4 -6 3 -12 -2 -7 -6
-38 -16 -68 -24 -30 -7 -59 -16 -65 -19 -5 -4 -32 -13 -60 -20 -27 -7 -54 -16
-60 -20 -5 -4 -18 -6 -27 -5 -10 2 -18 -2 -18 -8 0 -8 -3 -7 -9 2 -6 9 -11 10
-15 3 -4 -6 -13 -9 -20 -6 -8 3 -17 0 -21 -5 -3 -6 -11 -9 -16 -5 -5 3 -33 -3
-62 -12 -28 -10 -56 -19 -62 -20 -59 -13 -103 -18 -177 -18 -49 -1 -88 -5 -88
-9 0 -4 -8 -4 -17 2 -10 5 -26 5 -40 0 -14 -5 -23 -5 -23 1 0 5 -6 7 -12 5
-12 -4 -37 -7 -178 -21 -60 -5 -105 -12 -105 -14 0 -1 -12 -3 -27 -4 -183 -17
-78 -194 125 -210 26 -2 50 0 53 5 2 4 11 6 19 2 9 -3 27 3 42 13 31 20 49 23
208 38 11 1 26 5 33 9 7 5 12 3 12 -3 0 -6 5 -8 11 -4 19 11 74 13 80 2 4 -6
5 -45 2 -87 -3 -42 -5 -89 -6 -106 -1 -16 -6 -35 -10 -42 -4 -6 -3 -14 3 -18
6 -4 7 -12 0 -24 -6 -12 -5 -22 2 -29 9 -9 9 -12 -1 -12 -10 0 -11 -3 -2 -14
9 -10 9 -16 1 -21 -8 -5 -8 -11 -1 -19 6 -7 8 -16 4 -19 -3 -4 -8 -37 -9 -74
-2 -38 -6 -86 -8 -108 -3 -22 -8 -101 -11 -175 -4 -74 -9 -137 -11 -139 -2 -2
1 -10 7 -18 6 -7 8 -13 3 -13 -5 0 -10 -55 -11 -123 -4 -177 -4 -189 0 -225 2
-18 -1 -36 -5 -38 -5 -3 -4 -12 2 -19 6 -7 7 -15 3 -18 -9 -6 -8 -70 1 -86 4
-5 2 -12 -4 -16 -6 -4 -7 -13 -1 -23 6 -11 5 -24 -1 -36 -12 -21 -11 -236 2
-236 3 0 5 -17 4 -37 0 -21 5 -41 10 -45 7 -5 6 -8 -2 -8 -8 0 -10 -5 -5 -12
4 -7 9 -33 10 -58 2 -25 5 -53 7 -63 2 -9 1 -15 -2 -13 -12 7 -17 -288 -6
-335 4 -19 8 -36 9 -39 3 -20 42 -61 73 -76 42 -21 159 -29 179 -12 7 6 13 7
13 2 0 -5 4 -3 9 4 4 7 14 14 22 16 8 1 24 8 37 14 12 7 27 10 32 7 6 -3 10
-1 10 4 0 6 7 11 15 11 9 0 21 4 28 10 7 5 26 21 42 34 33 26 90 130 80 146
-3 5 -1 11 3 14 5 3 8 28 7 55 -1 33 2 48 9 44 7 -4 6 -1 -1 8 -10 13 -21 92
-29 209 -1 25 -3 45 -4 45 -5 0 -15 269 -21 555 -1 63 -5 119 -8 125 -3 5 -6
21 -7 36 -2 25 -10 76 -18 115 -2 11 -5 41 -7 65 -1 24 -7 52 -12 63 -7 14 -6
16 4 11 8 -6 10 -4 4 5 -5 8 -10 52 -12 99 -3 75 -8 126 -13 126 -2 0 -9 55
-14 118 -3 32 -8 62 -11 67 -3 6 -2 10 2 10 10 0 8 26 -5 102 -5 26 -8 70 -8
97 1 28 -2 51 -5 51 -3 0 -6 17 -7 38 -1 34 -8 106 -15 157 -2 11 -6 25 -9 30
-11 17 25 50 69 63 22 7 58 20 80 29 21 9 40 17 43 17 20 3 160 71 160 78 0 5
5 6 10 3 6 -3 10 -1 10 6 0 7 3 10 6 7 3 -3 31 9 61 28 31 19 63 34 70 34 7 0
13 4 13 8 0 5 18 17 39 27 22 10 49 27 59 39 23 24 33 78 18 92 -24 22 -45 20
-116 -13z"/>
<path d="M14395 8500 c-11 -4 -23 -6 -27 -3 -5 2 -8 -1 -8 -6 0 -6 -3 -10 -7
-9 -5 0 -26 -7 -48 -17 -22 -10 -42 -19 -45 -20 -3 0 -20 -9 -37 -18 -18 -10
-33 -14 -33 -10 0 5 -5 0 -11 -10 -6 -9 -14 -15 -20 -12 -5 4 -9 2 -9 -3 0 -5
-10 -13 -22 -17 -13 -4 -25 -9 -28 -10 -3 -1 -15 -6 -27 -10 -13 -4 -23 -11
-23 -14 0 -4 -6 -8 -12 -9 -22 -3 -63 -10 -68 -12 -3 -1 -8 -2 -12 -1 -5 0 -8
-4 -8 -10 0 -6 -7 -9 -15 -5 -8 3 -15 2 -15 -3 0 -4 -6 -8 -12 -9 -23 -2 -43
-7 -55 -15 -7 -5 -13 -6 -13 -2 0 3 -10 0 -22 -6 -13 -7 -32 -13 -43 -15 -53
-6 -102 -14 -122 -19 -13 -3 -32 -7 -43 -9 -11 -3 -25 -8 -30 -11 -9 -5 -19
-8 -65 -18 -5 -2 -16 -6 -22 -10 -8 -5 -13 -3 -13 5 0 8 -3 9 -8 3 -4 -6 -47
-10 -97 -10 -49 0 -93 -4 -97 -10 -5 -7 -8 -7 -8 0 0 6 -23 9 -52 8 -29 -1
-53 -2 -53 -3 0 -2 -102 -11 -157 -13 -32 -1 -58 -5 -58 -8 0 -3 -6 -6 -12 -6
-32 -1 -104 -16 -120 -24 -28 -15 -39 -44 -28 -71 12 -29 45 -68 58 -68 5 0
15 -7 22 -15 7 -8 16 -13 20 -10 5 3 11 1 15 -5 4 -6 11 -8 16 -5 5 4 9 2 9
-3 0 -23 139 -17 195 8 26 12 53 19 61 16 8 -3 14 -2 14 2 0 4 15 8 33 8 50 1
127 11 134 18 3 3 12 1 20 -5 7 -7 13 -7 13 -2 0 8 21 10 62 4 4 -1 6 -38 3
-83 -2 -46 -7 -144 -10 -218 -9 -201 -13 -265 -15 -265 -2 0 -7 -70 -11 -163
-2 -41 -7 -76 -11 -78 -5 -3 -5 -11 -1 -17 9 -15 11 -87 3 -82 -4 2 -7 -2 -7
-10 0 -8 4 -15 9 -15 11 0 6 -23 -7 -32 -7 -5 -6 -8 0 -8 6 0 11 -9 12 -20 1
-11 -1 -20 -5 -20 -4 0 -8 -102 -9 -228 -2 -249 -5 -332 -13 -327 -3 2 -5 -12
-5 -31 0 -19 2 -34 5 -34 3 0 5 -12 6 -27 2 -62 13 -159 20 -177 6 -15 4 -17
-7 -11 -12 8 -12 6 0 -8 17 -22 17 -95 -1 -319 -2 -21 0 -38 4 -38 11 0 5 -23
-7 -32 -6 -5 -6 -8 1 -8 6 0 12 -15 12 -32 0 -18 1 -36 2 -40 1 -5 3 -11 4
-15 1 -5 10 -22 20 -40 45 -73 178 -93 286 -41 30 15 67 30 83 33 15 4 27 10
27 14 0 3 12 12 28 18 22 11 75 72 78 92 0 3 7 20 14 36 19 40 17 302 -2 320
-4 4 -4 13 -2 20 3 7 1 16 -5 20 -7 4 -8 13 -3 23 9 18 8 79 -1 88 -3 3 -2 17
3 30 5 13 6 24 1 24 -10 0 -11 28 -14 262 -1 104 -4 188 -7 188 -3 0 -5 28 -6
63 0 34 -4 82 -8 107 -4 25 -8 55 -9 68 -1 12 -4 22 -7 22 -3 0 -6 17 -7 38
-1 20 -4 60 -7 87 -3 28 -8 88 -11 135 -2 47 -8 101 -12 120 -4 19 -7 50 -7
68 0 17 -2 32 -5 32 -3 0 -7 35 -9 78 -3 75 -8 137 -12 137 -1 0 -3 10 -4 23
-2 12 1 22 6 22 5 0 6 6 1 13 -4 6 -9 26 -10 42 0 17 -4 55 -7 85 -4 30 -9 71
-11 90 -2 19 -6 48 -9 64 -5 28 16 74 32 69 17 -6 132 38 132 50 0 5 4 6 9 3
5 -3 34 5 65 19 31 14 58 25 61 25 2 1 39 21 80 45 42 25 80 45 85 45 6 0 10
5 10 10 0 6 6 10 13 10 7 0 41 17 75 37 48 28 65 44 69 65 3 17 10 25 17 21 7
-4 6 -1 -1 9 -7 8 -11 17 -8 20 12 11 -31 35 -50 28z"/>
<path d="M20737 8373 c-2 -1 -24 -5 -48 -7 -24 -3 -57 -8 -74 -11 -16 -4 -36
-8 -42 -8 -7 0 -13 -4 -13 -9 0 -5 -4 -7 -9 -4 -11 7 -110 -40 -138 -67 -13
-11 -23 -18 -23 -14 0 8 -87 -82 -117 -122 -13 -16 -23 -34 -23 -39 0 -6 -3
-12 -7 -14 -9 -3 -54 -94 -72 -143 -28 -79 -29 -166 -1 -205 10 -15 36 -38 57
-53 37 -25 43 -26 148 -24 65 2 122 9 140 17 17 7 33 13 37 12 11 -2 87 79 94
101 4 12 19 40 33 62 27 43 44 72 71 121 76 143 175 190 293 141 57 -24 79
-86 82 -232 3 -141 -26 -223 -117 -327 -11 -13 -32 -38 -46 -57 -71 -91 -140
-147 -265 -215 -110 -60 -200 -146 -211 -202 -8 -36 -26 -74 -35 -74 -16 0
-50 -64 -65 -124 -20 -75 -30 -169 -29 -277 1 -95 15 -135 58 -163 14 -9 30
-28 35 -42 11 -28 50 -33 70 -9 6 8 17 13 23 12 7 -1 13 12 15 28 4 32 39 78
53 69 13 -8 51 36 45 52 -3 8 -1 24 3 37 10 24 59 203 66 238 6 30 32 47 85
55 25 4 57 13 72 21 15 7 29 13 30 12 6 -2 64 26 81 39 9 9 17 12 17 9 0 -4
34 14 75 39 41 25 75 50 75 55 0 5 5 9 10 9 12 0 67 55 125 124 22 27 50 60
63 75 62 70 131 194 135 241 1 11 5 20 9 20 4 0 7 3 6 8 -1 4 3 32 10 62 9 45
11 145 2 145 -1 0 -3 15 -5 34 -11 109 -33 185 -85 294 -33 69 -98 156 -117
157 -7 0 -13 3 -13 8 0 4 -17 16 -37 27 -21 11 -40 23 -43 26 -9 11 -153 60
-195 66 -22 3 -42 8 -45 12 -3 3 -23 7 -45 8 -22 1 -75 4 -117 6 -43 2 -79 2
-81 0z"/>
<path d="M5485 8280 c-33 -16 -63 -26 -67 -23 -5 2 -8 0 -8 -6 0 -5 -9 -13
-21 -16 -11 -4 -18 -9 -15 -12 2 -3 -6 -17 -19 -31 -13 -14 -29 -39 -36 -54
-6 -15 -15 -28 -20 -28 -5 0 -8 -3 -7 -7 1 -5 -6 -33 -15 -63 -9 -30 -19 -73
-23 -94 -3 -22 -10 -50 -15 -63 -5 -13 -8 -27 -7 -31 1 -4 -2 -32 -7 -62 -5
-30 -10 -66 -11 -80 -1 -14 -3 -25 -4 -25 -5 0 -22 -161 -24 -222 0 -24 -4
-43 -8 -43 -4 0 -5 -7 -1 -16 8 -20 -17 -36 -34 -22 -7 6 -13 15 -13 20 0 20
-43 55 -61 51 -19 -5 -40 -55 -36 -88 1 -11 10 -29 20 -39 9 -11 17 -24 17
-28 0 -5 4 -7 9 -4 5 3 11 -1 15 -9 3 -8 10 -15 16 -15 6 0 18 -6 26 -14 7 -8
19 -16 25 -18 7 -2 12 -23 12 -49 -1 -24 -3 -159 -6 -299 -3 -140 -6 -264 -6
-275 1 -22 0 -121 -1 -145 -2 -71 15 -288 24 -297 3 -3 1 -12 -5 -19 -7 -9 -7
-19 1 -33 8 -15 8 -21 0 -21 -6 0 -9 -4 -6 -9 6 -9 17 -78 19 -123 1 -15 6
-30 10 -34 4 -4 7 -17 7 -28 1 -23 19 -50 37 -53 6 -1 26 -5 44 -8 18 -3 35
-8 37 -10 2 -2 15 0 28 5 15 6 24 6 24 0 0 -5 18 -3 40 5 22 8 40 12 40 10 0
-7 73 36 102 60 14 11 30 36 36 55 11 34 12 220 2 220 -3 0 -6 26 -6 58 -6
268 -6 271 9 290 5 6 6 12 3 12 -4 0 -2 9 4 21 7 11 14 32 16 47 3 14 14 38
24 53 11 15 20 30 20 34 0 16 44 95 52 95 5 0 7 4 4 9 -3 5 1 12 10 15 9 4 14
9 11 12 -9 9 19 34 40 36 35 3 54 -2 48 -12 -3 -5 -1 -10 5 -10 11 0 27 -35
35 -74 2 -11 4 -21 6 -21 1 0 3 -9 4 -20 2 -11 6 -40 9 -65 7 -51 15 -131 21
-205 2 -27 4 -50 5 -50 1 0 3 -20 5 -45 5 -50 13 -115 15 -115 1 0 3 -13 5
-30 2 -16 7 -41 11 -55 4 -14 8 -30 10 -37 9 -45 29 -84 57 -113 33 -33 86
-62 99 -54 5 3 8 2 8 -3 0 -4 14 -8 30 -8 17 0 30 3 30 6 0 3 14 6 31 7 17 0
36 5 42 10 7 5 23 12 37 15 36 9 132 108 195 204 30 45 55 86 55 91 0 5 7 15
15 22 9 7 13 15 10 18 -2 3 4 19 15 37 11 18 17 35 13 38 -3 4 -1 7 5 7 6 0
13 14 17 31 6 26 18 32 21 11 5 -49 19 -110 30 -131 8 -14 14 -29 14 -34 0
-15 45 -77 57 -77 6 0 15 -10 19 -22 13 -42 83 -92 141 -101 17 -3 37 -8 44
-13 8 -5 10 -3 4 5 -5 10 -3 11 11 4 11 -5 28 -8 39 -7 119 11 179 41 265 128
78 81 98 107 141 189 40 77 51 76 57 -7 5 -63 81 -250 122 -299 62 -74 177
-100 283 -63 96 33 160 96 239 235 21 36 38 62 39 56 4 -36 -4 -124 -12 -140
-8 -17 1 -128 17 -209 8 -36 49 -76 79 -76 12 0 25 -3 29 -7 4 -5 11 -8 14 -8
4 -1 23 -9 42 -20 33 -17 64 -21 100 -12 27 7 80 42 80 53 0 7 7 14 15 18 16
6 51 75 59 116 3 14 9 42 15 62 5 20 6 39 4 42 -3 2 -2 10 3 17 4 7 9 31 10
53 2 23 6 50 8 62 3 12 8 39 12 60 5 35 65 134 86 142 4 2 8 8 8 13 0 10 9 22
40 57 8 10 40 49 70 87 83 105 132 156 149 153 9 -2 16 -8 17 -13 0 -6 4 -17
8 -27 4 -9 9 -132 11 -275 4 -295 7 -326 45 -408 29 -65 65 -102 120 -125 35
-15 116 -21 135 -11 6 3 19 7 30 8 11 2 25 10 31 18 6 8 13 13 16 10 5 -5 110
97 141 137 45 57 174 263 201 321 19 42 21 44 23 19 4 -46 37 -136 66 -176 71
-99 93 -125 117 -138 14 -7 27 -16 30 -19 3 -4 21 -8 40 -10 19 -2 40 -7 47
-11 6 -5 14 -4 18 2 3 6 12 7 18 3 16 -10 38 -10 60 0 10 5 17 4 17 -3 0 -6 6
-7 18 -1 9 4 43 20 74 35 38 18 82 52 130 102 71 72 143 176 131 188 -4 3 -1
6 5 6 7 0 12 9 12 21 0 11 5 17 10 14 6 -3 10 -1 10 6 0 25 10 1 15 -37 11
-80 17 -107 25 -123 5 -9 23 -50 40 -91 41 -97 70 -135 133 -167 52 -26 162
-39 173 -21 3 4 12 8 21 8 21 0 84 31 107 52 11 10 22 18 26 18 7 0 91 107
112 145 18 30 91 179 121 245 9 19 35 82 57 140 70 178 123 281 140 274 8 -3
22 -7 30 -9 8 -2 15 -4 15 -5 0 -1 7 -3 15 -5 8 -1 35 -8 60 -16 25 -7 52 -14
60 -16 29 -8 65 -10 75 -4 31 17 165 2 165 -18 0 -3 39 -5 88 -4 48 1 87 2 87
4 0 1 59 3 130 4 72 2 132 4 135 5 3 1 8 2 12 1 4 0 24 7 45 15 21 9 63 18 93
19 34 2 75 13 109 30 29 14 59 24 66 21 7 -2 16 -2 19 2 4 3 12 7 19 8 46 10
61 14 66 21 3 5 18 14 33 20 20 9 25 17 21 32 -4 15 2 24 21 32 14 7 23 16 20
20 -3 5 0 9 5 9 20 0 12 59 -9 70 -25 13 -141 20 -134 8 3 -4 -5 -4 -18 0 -27
9 -70 8 -86 -2 -6 -3 -13 -3 -16 2 -3 4 -28 8 -55 7 -28 -1 -51 3 -51 8 0 5
-6 4 -13 -2 -8 -6 -17 -8 -20 -4 -4 3 -46 7 -95 8 -48 0 -93 4 -99 8 -6 4 -14
4 -17 -1 -4 -7 -213 -9 -241 -2 -5 1 -12 1 -15 0 -3 -1 -86 -3 -185 -5 -99 -2
-193 -6 -210 -9 -48 -8 -118 -18 -146 -20 -15 -1 -38 -10 -53 -19 -14 -10 -26
-14 -26 -10 -1 5 -7 -3 -14 -16 -11 -19 -14 -57 -7 -92 0 -4 12 -17 25 -30 22
-22 23 -27 10 -49 -7 -14 -13 -21 -14 -15 0 5 -7 -1 -16 -13 -8 -12 -21 -22
-27 -22 -7 0 -20 -15 -29 -32 -24 -47 -108 -229 -108 -235 0 -10 -102 -206
-128 -247 -14 -22 -25 -44 -24 -48 1 -5 -3 -8 -8 -8 -6 0 -10 -6 -10 -13 0
-17 -37 -48 -64 -53 -25 -4 -39 4 -54 31 -10 20 -13 37 -27 150 -3 28 -7 194
-7 370 -1 288 -7 380 -27 395 -3 3 -11 14 -17 24 -6 11 -19 24 -30 30 -10 6
-22 16 -26 21 -5 7 -8 7 -8 0 0 -6 -3 -6 -8 0 -4 6 -32 20 -62 32 -43 16 -58
18 -67 8 -20 -21 -40 -68 -63 -145 -12 -41 -24 -79 -27 -83 -6 -10 -41 30 -74
84 -13 21 -32 41 -41 44 -10 4 -18 10 -18 15 0 5 -24 13 -52 18 -54 10 -108
11 -108 2 0 -3 -19 -6 -43 -7 -47 -2 -147 -33 -147 -45 0 -4 -5 -8 -11 -8 -12
0 -88 -57 -121 -91 -10 -10 -25 -23 -36 -31 -28 -21 -65 -74 -125 -184 -20
-38 -41 -76 -46 -84 -5 -8 -30 -60 -57 -115 -27 -55 -55 -105 -61 -113 -7 -7
-13 -17 -13 -22 0 -8 -112 -200 -131 -225 -5 -5 -31 -36 -60 -67 -43 -48 -54
-56 -70 -48 -41 22 -46 118 -14 270 6 29 11 57 20 120 4 25 15 79 26 122 10
42 19 103 19 135 0 74 -29 181 -64 233 -30 46 -104 103 -123 96 -7 -3 -15 -1
-19 5 -3 6 -10 6 -17 1 -7 -5 -20 -8 -29 -7 -10 2 -18 0 -18 -3 0 -4 -15 -13
-32 -20 -114 -47 -180 -114 -371 -376 -43 -59 -81 -105 -84 -102 -3 3 -7 18
-9 33 -5 50 -17 157 -19 183 -4 42 -21 75 -57 111 -37 37 -121 99 -153 113
-33 14 -85 24 -85 17 0 -4 -10 -7 -22 -6 -36 3 -58 -27 -68 -91 -4 -33 -14
-81 -20 -109 -7 -27 -14 -66 -17 -85 -10 -64 -144 -371 -194 -441 -10 -14 -16
-29 -12 -33 3 -3 1 -6 -5 -6 -6 0 -21 -20 -33 -45 -27 -53 -35 -61 -70 -70
-20 -5 -32 -1 -48 16 -11 12 -18 26 -15 30 2 4 0 10 -6 14 -5 3 -9 16 -9 28 0
12 -2 47 -6 77 -4 30 -8 208 -9 395 -2 302 -4 344 -19 373 -18 33 -74 92 -86
90 -6 -1 -50 16 -83 33 -50 26 -74 4 -106 -101 -34 -109 -43 -130 -55 -130 -6
0 -8 3 -4 6 5 5 -9 26 -39 58 -6 7 -15 22 -18 34 -4 12 -12 22 -17 22 -6 0
-21 11 -35 25 -14 14 -30 23 -35 20 -5 -4 -15 -3 -21 2 -16 10 -108 12 -108 2
0 -3 -22 -6 -50 -5 -27 1 -50 -2 -50 -6 0 -5 -8 -8 -17 -8 -54 0 -294 -184
-277 -211 3 -5 -1 -9 -9 -9 -7 0 -20 -12 -28 -27 -27 -53 -101 -178 -109 -183
-4 -3 -10 -17 -14 -32 -3 -16 -11 -28 -16 -28 -6 0 -10 -8 -10 -18 0 -10 -4
-22 -9 -28 -18 -19 -91 -166 -86 -174 3 -4 -2 -11 -11 -14 -8 -3 -12 -10 -9
-16 3 -5 1 -10 -4 -10 -6 0 -11 -4 -11 -10 0 -14 -63 -109 -97 -148 l-30 -32
-23 20 c-23 20 -24 23 -26 248 -2 229 -9 346 -22 366 -3 6 -7 16 -9 21 -12 58
-11 55 -73 131 -5 7 -6 15 -3 18 4 3 0 6 -7 6 -7 0 -11 3 -7 6 7 7 -50 49 -80
58 -30 10 -83 14 -83 7 0 -4 -10 -7 -22 -8 -13 -1 -34 -4 -48 -8 -14 -3 -36
-8 -48 -11 -29 -6 -72 -33 -72 -45 0 -5 -3 -8 -7 -7 -5 1 -38 -28 -75 -65 -37
-37 -65 -67 -63 -67 3 0 -9 -13 -27 -30 -17 -16 -28 -30 -24 -30 3 0 -4 -10
-15 -21 -14 -14 -24 -18 -28 -10 -4 6 -7 92 -6 191 0 99 -3 180 -6 180 -15 0
-2 48 19 70 22 23 105 139 108 150 6 24 30 70 36 70 4 0 5 7 2 15 -4 8 -2 15
4 15 6 0 14 15 17 33 4 17 10 37 13 42 4 6 8 19 10 30 5 30 10 50 12 50 1 0 3
30 5 66 1 37 5 71 8 75 6 11 1 192 -7 219 -3 11 -9 36 -14 55 -18 73 -82 165
-127 184 -66 29 -111 27 -180 -4z m180 -170 c9 -16 13 -30 9 -30 -4 0 -1 -6 5
-14 6 -8 13 -48 15 -89 2 -42 7 -80 11 -86 3 -6 3 -11 -2 -11 -4 0 -8 -28 -8
-63 1 -34 -2 -66 -4 -72 -8 -14 -11 -34 -14 -77 -1 -21 -6 -38 -11 -38 -4 0
-6 -7 -2 -15 3 -8 2 -15 -3 -15 -5 0 -11 -16 -14 -36 -7 -43 -67 -140 -77
-124 -7 12 -4 615 3 640 18 57 20 60 48 60 22 0 32 -7 44 -30z m1663 -1070 c2
-5 10 -10 18 -10 8 0 14 -4 14 -9 0 -5 6 -16 13 -23 7 -7 28 -44 46 -82 29
-62 32 -77 30 -149 -3 -102 -12 -132 -76 -240 -29 -49 -53 -93 -53 -98 0 -5
-4 -9 -10 -9 -5 0 -10 -7 -10 -15 0 -8 -4 -15 -10 -15 -5 0 -10 -6 -10 -12 0
-16 -58 -83 -71 -83 -6 0 -13 -5 -17 -10 -22 -32 -81 -55 -114 -45 -5 1 -13 3
-20 4 -20 2 -60 69 -55 93 2 12 0 20 -4 17 -18 -11 -14 202 3 224 11 13 11 14
-1 7 -11 -6 -12 -5 -5 6 4 8 9 19 10 24 13 77 21 111 33 133 6 11 7 22 4 26
-3 3 -1 6 5 6 7 0 11 3 10 8 -3 12 25 82 34 82 4 0 8 7 8 15 0 8 4 15 9 15 5
0 13 10 17 23 10 33 92 121 117 124 11 2 23 6 25 8 8 8 57 -4 60 -15z m3135
-18 c33 -31 59 -76 50 -86 -4 -3 -1 -6 5 -6 7 0 12 -7 12 -15 0 -8 4 -15 9
-15 26 0 28 -189 3 -265 -13 -41 -168 -295 -196 -321 -38 -37 -104 -76 -115
-69 -6 3 -11 2 -11 -3 0 -9 -21 -8 -57 3 -36 11 -72 138 -66 234 4 73 41 247
59 282 8 16 14 30 13 31 -4 10 35 88 44 88 6 0 7 3 4 7 -4 3 2 16 12 27 11 12
20 24 20 29 2 17 91 108 100 102 4 -2 13 1 21 6 22 14 61 1 93 -29z"/>
<path d="M14520 8287 c-19 -11 -42 -21 -50 -22 -30 -3 -56 -20 -92 -59 -21
-23 -38 -47 -38 -53 0 -7 -4 -13 -10 -13 -5 0 -9 -3 -8 -7 1 -5 -3 -19 -9 -33
-18 -39 -27 -64 -28 -75 -1 -5 -4 -19 -8 -30 -8 -25 -23 -109 -32 -174 -2 -14
-4 -26 -5 -26 -3 0 -9 -40 -16 -95 -7 -63 -12 -94 -14 -97 -1 -2 -2 -18 -2
-35 -1 -18 -5 -38 -10 -45 -5 -7 -5 -14 2 -18 7 -4 7 -11 2 -18 -5 -7 -8 -33
-8 -59 1 -69 -23 -73 -59 -11 -25 43 -40 47 -69 18 -19 -19 -23 -32 -19 -57 6
-45 23 -69 74 -103 72 -49 72 -49 66 -116 -4 -33 -9 -64 -12 -69 -3 -5 -1 -12
5 -15 7 -5 8 -11 1 -19 -6 -7 -6 -17 -1 -26 5 -8 5 -21 -1 -31 -5 -10 -6 -20
-2 -22 10 -6 8 -210 -1 -225 -3 -6 -1 -14 5 -17 5 -4 7 -14 3 -24 -9 -22 -11
-362 -1 -368 4 -2 3 -12 -3 -22 -5 -10 -7 -21 -3 -24 3 -4 7 -35 9 -69 6 -97
13 -188 20 -238 3 -25 6 -51 6 -57 1 -7 5 -13 9 -13 4 0 7 -6 6 -12 -1 -46 11
-54 91 -64 13 -1 26 -5 29 -8 4 -3 12 -1 19 5 8 7 14 7 19 -1 3 -6 12 -7 18
-3 7 4 23 9 37 11 34 4 111 42 135 67 40 39 59 114 43 163 -6 17 -5 21 4 16 8
-5 9 -2 4 12 -8 20 -15 95 -21 221 -2 43 -4 78 -5 78 -1 0 -3 17 -4 37 -1 20
2 34 6 32 5 -3 7 6 4 19 -2 14 -2 28 2 31 6 7 12 30 14 54 1 6 5 12 10 12 4 0
7 3 6 8 -3 15 15 62 24 62 5 0 7 4 3 9 -3 5 2 17 11 25 8 9 13 16 10 16 -7 0
18 47 57 107 27 42 51 61 75 57 6 -1 19 -2 27 -3 8 0 14 -4 13 -8 -1 -5 6 -25
15 -47 9 -21 17 -49 17 -62 0 -13 4 -24 9 -24 4 0 7 -12 5 -27 -1 -15 0 -31 3
-37 4 -5 7 -26 7 -45 1 -20 4 -40 7 -46 2 -5 5 -36 4 -67 0 -32 2 -58 5 -58 3
0 5 -21 6 -48 1 -42 8 -102 21 -172 2 -14 5 -32 7 -40 17 -96 67 -187 116
-208 24 -11 75 -23 95 -24 27 0 92 15 104 25 8 7 16 11 18 10 1 -2 4 -3 6 -2
1 0 10 2 19 4 34 6 198 193 198 225 0 6 4 10 10 10 5 0 12 11 16 25 3 14 10
25 16 25 5 0 6 5 3 10 -3 6 -3 10 2 10 9 0 39 61 35 73 -1 4 2 7 8 7 6 0 9 3
8 8 -1 4 4 20 10 35 7 16 12 33 12 38 0 20 16 8 17 -13 1 -13 4 -34 8 -48 4
-14 8 -32 9 -40 5 -31 45 -108 72 -140 67 -77 111 -120 117 -113 4 3 7 2 7 -4
0 -5 6 -10 13 -11 26 -2 82 -10 82 -12 0 -1 21 -2 48 -3 26 -1 47 0 47 3 0 3
14 6 31 7 35 3 103 35 135 64 11 11 24 16 27 12 4 -3 7 -1 7 6 0 7 12 25 28
41 62 63 89 97 108 130 10 19 23 41 28 49 6 7 11 20 12 29 2 14 21 31 34 32 3
0 7 -17 9 -37 2 -21 4 -47 5 -58 2 -22 37 -117 45 -125 4 -3 7 -12 9 -20 15
-68 94 -171 137 -178 11 -2 25 -7 30 -12 17 -13 94 -18 138 -9 46 10 108 38
119 54 4 6 8 7 8 4 0 -4 17 9 38 28 20 19 36 36 34 39 -2 3 5 13 15 22 24 22
62 82 98 157 17 33 35 63 40 67 6 4 6 8 2 8 -4 0 -2 10 5 23 7 12 12 26 13 30
0 4 6 11 13 16 8 5 13 11 13 15 -3 19 0 27 8 21 6 -3 9 -13 8 -23 -1 -21 35
-112 45 -112 4 0 5 -7 2 -15 -4 -8 -1 -15 5 -15 6 0 11 -7 11 -15 0 -9 7 -18
15 -21 8 -4 12 -10 9 -15 -3 -5 0 -9 6 -9 6 0 18 -6 25 -12 35 -31 45 -38 45
-31 0 4 4 3 8 -3 20 -29 126 -60 147 -43 6 4 26 6 45 5 49 -4 140 33 140 58 0
2 25 31 55 63 30 32 55 62 55 66 0 4 15 23 33 41 17 18 33 39 35 45 3 15 51
91 57 91 3 0 5 -7 5 -16 0 -9 -5 -12 -12 -8 -7 5 -8 3 -3 -7 5 -7 8 -27 8 -44
-1 -16 -4 -102 -7 -190 -6 -187 -18 -296 -33 -282 -3 4 -19 -7 -35 -23 -16
-17 -34 -30 -39 -30 -5 0 -9 -6 -9 -14 0 -7 -7 -20 -16 -27 -23 -19 -64 -86
-64 -104 0 -8 -4 -15 -9 -15 -8 0 -37 -70 -33 -77 1 -2 -7 -23 -18 -48 -11
-25 -20 -49 -20 -53 0 -4 -5 -24 -11 -45 -9 -34 -8 -56 7 -152 6 -42 42 -109
73 -138 14 -14 42 -30 63 -35 49 -13 148 7 213 44 54 30 154 128 175 172 8 15
19 34 25 42 6 8 20 35 30 60 10 25 23 50 28 57 5 7 11 38 13 70 4 67 8 91 25
153 6 25 12 56 13 70 3 37 14 49 39 44 47 -11 72 -10 84 5 18 25 -10 67 -62
90 -43 19 -44 21 -40 58 2 21 6 72 7 113 2 41 8 78 13 82 6 5 6 8 -2 8 -7 0
-10 9 -7 23 4 18 15 277 16 389 0 17 5 25 11 21 6 -4 7 -1 2 8 -8 12 -8 30 -3
124 4 76 -19 140 -72 196 -42 46 -160 85 -227 75 -21 -3 -39 -5 -41 -6 -2 0 0
-4 3 -10 3 -5 2 -10 -2 -10 -5 0 -10 -12 -11 -27 -1 -16 -4 -39 -7 -53 -3 -14
-7 -45 -9 -70 -8 -98 -47 -207 -106 -294 -17 -24 -30 -49 -30 -55 0 -6 -4 -11
-10 -11 -5 0 -9 -4 -7 -8 3 -12 -89 -153 -96 -145 -4 3 -7 1 -7 -5 0 -7 -8
-20 -17 -30 -10 -10 -28 -31 -41 -46 -12 -15 -27 -24 -32 -21 -16 10 -51 85
-45 95 3 5 1 11 -4 15 -10 6 -7 199 3 260 3 17 8 48 11 70 10 68 12 79 20 118
4 20 11 40 16 42 4 3 6 11 3 18 -2 8 2 40 11 73 23 83 27 105 27 139 1 31 -18
81 -40 105 -7 8 -20 24 -30 35 -26 30 -67 63 -57 45 8 -13 6 -13 -8 -1 -9 7
-24 11 -32 7 -8 -3 -15 -1 -15 4 0 18 -97 32 -117 17 -7 -5 -13 -7 -13 -3 0 3
-13 -6 -30 -21 -16 -14 -30 -32 -30 -40 0 -7 -5 -13 -11 -13 -5 0 -8 -4 -4 -9
3 -5 1 -12 -5 -16 -6 -4 -8 -11 -5 -16 4 -5 1 -9 -4 -9 -6 0 -10 -3 -9 -7 1
-5 -4 -26 -10 -47 -6 -22 -9 -43 -7 -47 3 -4 1 -9 -3 -11 -5 -1 -16 -37 -25
-78 -10 -41 -20 -84 -22 -95 -3 -10 -7 -37 -11 -60 -14 -98 -25 -135 -63 -218
-22 -48 -40 -90 -40 -92 0 -3 -27 -59 -59 -124 -85 -169 -156 -276 -174 -265
-4 3 -8 -1 -8 -8 0 -10 -2 -10 -9 0 -4 8 -12 13 -17 11 -17 -5 -45 48 -49 91
-2 25 -7 72 -10 105 -3 33 -8 65 -10 72 -2 7 0 15 5 18 7 4 7 13 0 24 -5 10
-6 21 -3 25 4 3 5 46 4 94 -2 48 -3 114 -3 147 0 33 1 98 1 145 0 47 -1 105
-3 130 -3 47 -32 120 -47 120 -5 0 -9 8 -9 17 0 9 -3 13 -7 10 -3 -4 -13 -1
-22 7 -26 22 -133 58 -156 52 -12 -3 -22 -12 -23 -21 -1 -8 -3 -22 -4 -30 -1
-8 -5 -15 -8 -15 -4 0 -11 -15 -15 -32 -8 -35 -8 -35 -18 -58 -4 -8 -8 -26
-10 -40 -5 -32 -36 -40 -44 -11 -3 12 -9 21 -14 21 -5 0 -17 15 -25 34 -9 18
-29 41 -45 50 -16 9 -29 21 -29 26 0 5 -8 9 -17 9 -89 4 -116 3 -170 -3 -34
-4 -79 -14 -100 -23 -21 -9 -41 -16 -45 -15 -5 1 -8 -2 -8 -8 0 -5 -7 -10 -15
-10 -8 0 -15 -4 -15 -10 0 -5 -4 -10 -10 -10 -11 0 -33 -17 -87 -67 -19 -17
-38 -33 -41 -35 -18 -8 -89 -115 -117 -175 -9 -18 -20 -33 -26 -33 -5 0 -7 -4
-4 -10 3 -5 2 -10 -4 -10 -5 0 -13 -10 -17 -22 -4 -13 -9 -25 -13 -28 -9 -7
-156 -302 -156 -312 0 -5 -5 -12 -10 -16 -6 -4 -19 -24 -30 -45 -11 -21 -28
-47 -38 -58 -10 -10 -15 -19 -11 -19 3 0 -4 -8 -17 -19 -33 -27 -59 -21 -74
17 -8 17 -10 32 -5 32 5 0 5 12 1 28 -9 31 -8 62 3 80 4 7 2 12 -5 12 -8 0 -8
4 1 15 7 8 8 15 4 15 -5 0 -9 18 -9 40 0 22 4 40 9 40 4 0 3 7 -4 15 -10 12
-10 15 1 15 9 0 10 3 4 8 -12 8 -13 61 -2 80 5 6 5 12 0 12 -4 0 -8 18 -7 40
0 22 -3 40 -6 40 -4 0 -6 14 -4 32 2 18 -1 47 -7 66 -6 18 -12 40 -13 47 -1 8
-5 18 -9 21 -4 4 -7 15 -7 25 0 9 -6 19 -14 22 -8 3 -26 28 -41 55 -20 36 -38
55 -71 72 -25 12 -51 19 -59 16 -8 -3 -15 -1 -15 4 0 5 -12 6 -27 3 -16 -3
-36 -6 -45 -7 -10 0 -18 -4 -18 -9 0 -4 -4 -5 -10 -2 -5 3 -10 3 -10 -2 0 -4
-16 -9 -35 -10 -19 -1 -44 -8 -55 -16 -27 -19 -170 -157 -170 -164 0 -3 -10
-15 -23 -27 -13 -12 -26 -29 -29 -38 -4 -9 -17 -22 -29 -29 -19 -10 -21 -9
-16 5 4 9 3 16 -1 16 -4 0 -7 90 -7 200 0 163 3 203 15 217 77 90 125 176 175
308 15 39 28 101 29 142 1 18 5 33 10 33 5 0 3 6 -3 13 -6 8 -8 17 -4 21 14
14 19 177 7 226 -3 14 -8 36 -11 50 -9 47 -62 160 -75 160 -5 0 -8 7 -8 15 0
8 -7 15 -15 15 -9 0 -18 7 -21 15 -4 8 -10 12 -15 9 -5 -3 -9 -1 -9 5 0 5 -8
10 -17 11 -10 0 -36 2 -58 4 -27 2 -52 -3 -75 -17z m153 -170 c24 -38 37 -109
40 -225 1 -34 0 -62 -3 -62 -3 0 -5 -17 -4 -38 0 -20 -4 -52 -9 -71 -5 -19
-10 -48 -12 -65 -2 -17 -4 -31 -5 -31 -2 0 -5 -14 -14 -54 -3 -14 -9 -27 -13
-30 -5 -3 -10 -15 -11 -26 -2 -10 -11 -25 -20 -33 -12 -9 -12 -11 -2 -6 8 4 4
-4 -10 -18 -14 -15 -27 -24 -30 -21 -10 10 -5 323 5 323 7 0 7 3 0 8 -13 9
-15 82 -3 82 5 0 6 5 2 11 -9 15 -11 179 -3 179 4 0 6 8 6 18 0 41 4 53 23 72
22 22 42 18 63 -13z m1667 -1073 c27 -17 90 -108 90 -132 0 -7 4 -12 9 -12 13
0 24 -67 23 -145 0 -38 -1 -70 -2 -70 -1 0 -3 -8 -5 -18 -5 -25 -58 -131 -68
-136 -8 -3 -30 -52 -27 -60 1 -2 -5 -8 -14 -13 -9 -5 -14 -13 -11 -19 4 -5 1
-9 -4 -9 -6 0 -11 -5 -11 -10 0 -16 -40 -70 -82 -112 -53 -53 -113 -82 -143
-68 -8 4 -24 7 -41 9 -8 0 -13 5 -10 10 4 5 2 11 -4 13 -6 2 -12 12 -14 23 -2
11 -8 31 -13 45 -5 14 -9 37 -8 53 0 15 -2 27 -6 27 -10 0 -5 44 6 52 6 5 5 8
-3 8 -7 0 -10 5 -6 11 4 6 8 23 9 38 1 14 6 46 10 71 5 25 10 52 11 60 9 51
44 149 55 156 5 3 7 10 4 15 -4 5 -1 9 5 9 6 0 9 4 6 9 -3 5 3 20 14 34 11 14
20 30 20 36 0 5 8 15 18 20 9 6 13 11 9 11 -5 0 5 13 21 30 17 16 32 35 34 40
3 10 70 38 91 40 5 0 21 -7 37 -16z m1622 -1204 c-2 -19 -5 -42 -7 -52 -2 -10
2 -18 8 -18 8 0 8 -3 -1 -9 -8 -4 -13 -11 -11 -15 2 -8 -9 -131 -16 -167 -3
-14 -6 -39 -8 -55 -2 -16 -14 -51 -27 -77 -28 -55 -52 -61 -75 -17 -9 17 -12
30 -8 30 4 0 -2 7 -13 16 -10 8 -12 12 -4 8 12 -6 13 -5 3 7 -14 17 -10 68 13
162 1 4 2 13 3 21 0 8 7 21 14 28 6 7 12 18 13 23 1 22 26 75 35 75 5 0 9 6 9
14 0 8 10 22 22 30 12 9 18 16 13 16 -6 0 -3 5 5 10 24 16 35 5 32 -30z"/>
<path d="M24592 8162 c-164 -171 -345 -294 -556 -377 -430 -171 -853 -564
-1118 -1040 -57 -104 -138 -271 -138 -288 0 -7 -4 -17 -9 -22 -15 -17 -72
-195 -106 -330 l-33 -130 -68 -47 c-92 -64 -115 -81 -130 -95 -7 -7 -16 -13
-20 -13 -24 0 -321 -293 -410 -405 -21 -27 -42 -52 -45 -55 -9 -7 -62 -82
-123 -175 -156 -236 -263 -482 -333 -760 -33 -130 -51 -281 -58 -470 -5 -160
-22 -254 -77 -423 -27 -85 -100 -254 -125 -290 -12 -17 -152 -66 -261 -91
-164 -38 -160 -38 -682 -30 -212 3 -314 -8 -530 -56 -62 -14 -234 -69 -325
-105 -102 -40 -347 -161 -405 -200 -14 -9 -45 -30 -70 -46 -50 -32 -192 -134
-200 -144 -3 -3 -25 -21 -50 -40 -52 -40 -230 -216 -310 -307 l-55 -61 -85 -7
c-47 -4 -87 -9 -90 -10 -3 -2 -26 -6 -50 -10 -77 -11 -326 -74 -418 -106 -253
-89 -483 -210 -692 -364 -118 -86 -148 -113 -281 -245 -145 -145 -254 -289
-350 -465 -90 -165 -206 -306 -359 -435 -36 -30 -67 -57 -70 -60 -3 -3 -26
-20 -53 -37 l-47 -31 52 -4 c171 -13 407 2 578 36 136 27 158 33 280 71 180
56 418 165 546 249 21 15 48 32 58 39 150 96 355 290 469 442 59 79 197 332
197 360 0 14 60 156 95 226 70 136 209 341 241 353 10 4 101 5 203 2 175 -4
230 -8 291 -21 14 -2 41 -7 60 -10 19 -3 49 -10 65 -15 31 -9 67 -17 120 -26
17 -3 54 -9 83 -15 52 -10 307 -14 348 -5 12 2 45 7 75 11 30 3 82 13 117 21
34 7 74 16 90 19 41 7 217 68 309 108 249 106 520 292 725 499 54 55 98 101
98 104 0 2 8 12 18 22 59 63 185 237 231 322 23 43 46 63 91 80 62 23 234 115
310 165 503 331 871 852 985 1394 26 124 35 291 23 419 -17 186 -22 252 -22
332 0 83 10 225 18 265 2 12 7 46 11 78 4 31 13 61 19 66 7 6 77 44 157 85
162 83 327 143 499 181 49 11 200 74 290 122 546 288 974 935 1075 1624 7 49
18 259 14 259 -2 -1 -42 -40 -87 -88z"/>
<path d="M924 8070 c3 -58 7 -114 9 -125 3 -11 8 -42 12 -70 5 -27 9 -52 10
-55 1 -3 7 -32 14 -65 32 -150 84 -308 142 -435 56 -121 104 -215 112 -218 4
-2 7 -8 7 -14 0 -16 172 -273 200 -298 3 -3 16 -18 29 -35 39 -52 174 -188
226 -230 28 -22 55 -45 60 -51 32 -36 216 -153 310 -198 22 -10 51 -24 65 -31
41 -21 178 -65 299 -96 63 -15 146 -40 185 -55 85 -32 322 -147 354 -172 26
-20 26 -23 51 -202 13 -98 11 -353 -4 -455 -16 -115 -12 -355 9 -460 51 -257
149 -508 267 -683 16 -24 29 -45 29 -48 0 -17 183 -245 270 -337 73 -78 211
-198 315 -275 39 -28 75 -56 81 -61 6 -5 24 -16 40 -25 16 -9 43 -25 59 -36
17 -10 77 -42 135 -71 58 -29 121 -60 140 -70 25 -13 52 -44 95 -113 82 -130
80 -127 169 -235 106 -128 199 -220 325 -321 24 -19 49 -39 55 -45 7 -5 19
-14 27 -20 8 -5 64 -43 125 -83 122 -82 326 -186 454 -232 232 -85 437 -120
675 -115 88 1 171 5 185 9 14 3 39 8 55 10 17 2 59 12 95 21 178 47 387 68
638 65 33 0 -211 257 -348 366 -199 158 -413 289 -613 375 -40 16 -81 34 -92
39 -58 25 -215 77 -254 85 -13 2 -31 7 -41 10 -18 6 -42 11 -90 21 -14 3 -44
9 -67 14 -143 32 -347 41 -548 24 -148 -12 -339 -8 -435 10 -125 23 -130 24
-225 51 -121 35 -154 51 -165 77 -5 13 -14 30 -19 38 -5 8 -16 31 -24 50 -9
19 -25 58 -37 85 -21 48 -66 188 -74 230 -3 11 -9 40 -14 65 -14 59 -21 147
-27 305 -2 72 -6 140 -9 151 -2 12 -7 39 -11 60 -13 83 -16 101 -31 159 -9 33
-17 69 -20 79 -24 119 -131 372 -228 538 -161 279 -397 561 -614 733 -14 11
-43 35 -66 54 -23 18 -80 60 -128 93 -65 43 -89 65 -94 86 -3 15 -8 35 -10 44
-3 9 -7 25 -9 36 -8 41 -48 172 -82 267 -98 275 -287 596 -482 820 -43 49
-258 263 -290 288 -13 11 -60 45 -105 78 -44 33 -86 64 -93 69 -7 6 -15 10
-18 10 -4 0 -25 13 -48 28 -65 44 -176 98 -278 138 -96 37 -240 107 -262 128
-7 6 -32 24 -57 40 -71 46 -194 151 -261 224 l-61 67 6 -105z"/>
<path d="M19441 7267 c-20 -33 -40 -80 -46 -107 -10 -50 -27 -100 -35 -105 -6
-3 -15 5 -22 19 -6 14 -14 26 -17 26 -4 0 -17 18 -31 40 -14 22 -28 40 -32 40
-3 0 -14 7 -22 16 -9 9 -22 17 -29 18 -6 1 -16 4 -22 7 -20 11 -196 -6 -224
-21 -12 -6 -21 -8 -21 -4 0 7 -108 -53 -125 -70 -7 -6 -34 -29 -60 -51 -27
-22 -53 -45 -59 -52 -29 -33 -36 -43 -36 -53 0 -5 -4 -10 -10 -10 -5 0 -12
-11 -16 -25 -3 -14 -10 -25 -14 -25 -5 0 -16 -21 -26 -47 -10 -27 -21 -53 -25
-59 -5 -6 -11 -28 -15 -49 -6 -38 -10 -59 -21 -105 -9 -38 -6 -252 3 -259 5
-3 10 -19 12 -36 5 -48 50 -119 121 -192 43 -45 75 -70 91 -71 40 -4 59 -8 66
-15 4 -3 15 -2 25 4 11 5 19 6 19 2 0 -4 18 -8 40 -8 22 0 40 3 40 7 0 4 9 5
20 3 11 -2 20 0 20 6 0 5 9 9 20 9 11 0 20 4 20 9 0 5 10 11 23 15 24 6 105
78 145 130 12 16 22 25 22 20 0 -11 60 88 83 139 28 59 44 50 48 -29 6 -98
122 -334 165 -334 8 0 14 -4 14 -8 0 -15 74 -34 133 -36 31 0 57 2 57 7 0 4 6
7 14 7 8 0 25 4 38 9 13 5 28 10 33 12 25 9 103 83 135 129 13 19 29 38 35 42
5 4 6 8 2 8 -5 0 0 12 11 28 11 15 40 70 64 122 61 128 70 150 113 260 20 52
42 104 48 115 6 11 12 22 12 25 1 3 18 41 39 85 21 43 39 84 41 90 1 5 7 23
13 38 20 49 15 65 -10 33 -13 -16 -59 -66 -103 -110 -59 -60 -88 -98 -109
-146 -16 -36 -42 -94 -58 -130 -49 -108 -122 -254 -135 -268 -7 -7 -20 -28
-29 -47 -19 -40 -84 -115 -84 -97 0 7 -3 11 -7 11 -37 -6 -58 21 -69 87 -9 54
-17 404 -15 644 0 52 -1 106 -3 120 -2 14 -4 35 -5 47 0 12 -7 28 -13 35 -7 8
-18 23 -24 33 -9 18 -144 96 -153 89 -2 -2 -12 1 -22 6 -14 8 -21 4 -38 -23z
m-239 -216 c19 -3 60 -58 93 -124 38 -77 47 -149 31 -242 -6 -39 -43 -125 -56
-135 -4 -3 -17 -23 -29 -45 -22 -42 -27 -51 -75 -125 -39 -61 -114 -129 -153
-137 -7 -2 -21 -5 -30 -7 -10 -2 -22 -1 -28 3 -5 3 -14 6 -19 6 -15 0 -45 48
-50 80 -2 17 -5 30 -6 30 -5 0 -10 51 -11 95 -1 60 7 129 20 162 5 14 7 28 4
31 -3 3 0 21 7 39 6 18 14 44 16 58 3 13 9 29 15 36 5 6 6 14 2 17 -3 4 -1 7
5 7 7 0 12 7 12 15 0 27 93 175 110 175 5 0 11 8 14 18 10 32 74 53 128 43z"/>
<path d="M20365 6181 c-3 -6 -10 -9 -14 -6 -5 2 -27 -13 -50 -34 -36 -34 -43
-47 -52 -100 -8 -49 -6 -68 6 -98 18 -42 71 -97 86 -88 5 4 9 2 9 -3 0 -5 6
-9 13 -10 6 0 23 -3 37 -7 63 -17 100 -22 100 -13 0 5 5 6 10 3 6 -3 10 -1 10
4 0 6 5 11 10 11 36 0 84 105 76 165 -2 17 -4 42 -5 56 -1 25 -68 115 -79 105
-2 -3 -14 0 -26 6 -29 16 -122 22 -131 9z"/>
<path d="M7270 2131 c0 -5 3 -11 8 -13 13 -6 107 -140 172 -247 56 -93 160
-315 160 -341 0 -26 137 -269 182 -325 98 -120 131 -157 187 -213 141 -140
394 -317 561 -394 122 -56 164 -73 287 -114 254 -86 425 -115 698 -119 116 -1
221 1 234 4 23 6 22 8 -20 36 -97 64 -251 206 -345 317 -22 26 -64 88 -94 139
-74 122 -203 317 -235 354 -14 17 -47 55 -73 84 -229 264 -556 493 -922 646
-36 15 -74 31 -85 36 -133 55 -463 134 -610 145 -33 2 -70 7 -82 9 -13 3 -23
1 -23 -4z"/>
<path d="M13620 989 c-88 -11 -141 -18 -166 -23 -12 -2 -37 -7 -55 -10 -46 -8
-77 -14 -97 -20 -9 -3 -28 -7 -42 -10 -84 -17 -251 -70 -354 -113 -71 -30 -88
-28 -216 22 -90 35 -313 98 -391 109 -20 3 -42 7 -50 10 -16 6 -69 12 -177 23
-99 10 -466 10 -556 0 -177 -19 -381 -63 -503 -108 -32 -11 -76 -27 -98 -34
-59 -19 -190 -81 -273 -128 -87 -50 -86 -49 -182 -111 -154 -100 -335 -167
-570 -209 -14 -3 -42 -8 -63 -12 l-38 -7 68 -40 c248 -146 518 -244 803 -294
14 -2 36 -6 50 -9 108 -19 443 -27 585 -13 79 8 223 37 335 67 144 38 281 98
425 184 76 45 111 73 272 210 37 32 100 79 138 105 39 26 72 49 75 52 8 8 96
55 197 106 l92 46 88 -42 c157 -76 339 -197 458 -305 22 -20 56 -48 75 -63 19
-15 37 -29 40 -32 13 -13 101 -71 121 -80 13 -6 38 -19 55 -29 109 -66 376
-159 509 -177 28 -3 53 -8 56 -10 21 -12 203 -27 339 -27 205 -1 333 13 520
55 145 33 329 90 423 132 31 14 60 27 65 28 15 4 178 91 204 109 14 11 29 19
33 19 9 0 38 30 34 35 -2 2 -27 6 -54 9 -220 24 -486 121 -658 239 -85 59
-251 147 -342 182 -38 15 -79 30 -90 35 -96 38 -277 86 -400 104 -22 3 -51 8
-65 11 -89 18 -505 27 -620 14z"/>
</g>
</svg>
